Coordinates
version=1
nRows=10
nColumns=63
inDegrees=yes

Units are S.I. units (second, meters, Newtons, ...)
If the header above contains a line with 'inDegrees', this indicates whether rotational values are in degrees (yes) or radians (no).

endheader
time	pelvis_tilt	pelvis_list	pelvis_rotation	pelvis_tx	pelvis_ty	pelvis_tz	hip_flexion_r	hip_adduction_r	hip_rotation_r	knee_angle_r	knee_angle_r_beta	ankle_angle_r	subtalar_angle_r	mtp_angle_r	hip_flexion_l	hip_adduction_l	hip_rotation_l	knee_angle_l	knee_angle_l_beta	ankle_angle_l	subtalar_angle_l	mtp_angle_l	L5_S1_Flex_Ext	L5_S1_Lat_Bending	L5_S1_axial_rotation	L4_L5_Flex_Ext	L4_L5_Lat_Bending	L4_L5_axial_rotation	L3_L4_Flex_Ext	L3_L4_Lat_Bending	L3_L4_axial_rotation	L2_L3_Flex_Ext	L2_L3_Lat_Bending	L2_L3_axial_rotation	L1_L2_Flex_Ext	L1_L2_Lat_Bending	L1_L2_axial_rotation	L1_T12_Flex_Ext	L1_T12_Lat_Bending	L1_T12_axial_rotation	Abs_r3	Abs_r2	Abs_r1	Abs_t1	Abs_t2	neck_flexion	neck_bending	neck_rotation	arm_flex_r	arm_add_r	arm_rot_r	elbow_flex_r	pro_sup_r	wrist_flex_r	wrist_dev_r	arm_flex_l	arm_add_l	arm_rot_l	elbow_flex_l	pro_sup_l	wrist_flex_l	wrist_dev_l
      6.75000000	      1.66446130	      2.99059838	     94.32243427	      0.24330735	      0.89461675	      0.56041228	     -3.22836909	      6.42860174	      3.10306039	     19.83104220	      0.34611698	     33.68357836	    -10.76286881	      0.00000000	     -2.51901782	     -3.77326819	      0.09381344	     20.20808513	      0.35269762	     35.48241415	     -7.12559741	      0.00000000	     -0.16461622	     -0.15947835	      1.31741243	     -0.30570878	     -0.21210620	      1.39975071	     -0.27044799	     -0.38775565	      1.39975071	     -0.18813988	     -0.38775565	      1.15273588	     -0.15286262	     -0.32520824	      1.07039760	     -0.09406171	     -0.24703196	      0.98805932	     -1.17583719	     -1.80405095	      7.32705273	      0.00000000	      0.00000000	     -2.64528298	      2.91193120	    -18.75286567	     37.67758914	     -6.91153953	      9.83827938	    102.53505447	     88.64585367	    -11.02451496	      5.81645734	     -8.35792944	    -18.80790437	     21.75950502	    118.94413178	     86.94067683	    -12.41039549	      1.53336817
      6.76923077	      1.74067075	      2.90886479	     94.14164422	      0.24386784	      0.89461803	      0.56087906	     -3.07296690	      6.43120128	      2.84146859	     19.89021658	      0.34714977	     33.82956532	    -10.13539366	      0.00000000	     -2.48250486	     -3.74894205	      0.58123365	     20.02694002	      0.34953604	     35.45522911	     -7.70133980	      0.00000000	     -0.18945705	     -0.16412685	      1.36781047	     -0.35184069	     -0.21828871	      1.45329862	     -0.31125899	     -0.39905803	      1.45329862	     -0.21653046	     -0.39905803	      1.19683416	     -0.17592982	     -0.33468748	      1.11134601	     -0.10825576	     -0.25423250	      1.02585785	     -1.35327276	     -1.85663579	      7.60735148	      0.00000000	      0.00000000	     -3.00780910	      2.81905992	    -18.68014092	     37.06742563	     -6.89051535	      9.96039353	    107.64629598	     88.41318657	    -12.19843988	      7.68239024	     -8.73285851	    -18.96424593	     21.99790188	    118.80131898	     87.57884108	    -12.16328397	      0.68475510
      6.78846154	      1.79450234	      2.76481462	     93.99704611	      0.24451778	      0.89447175	      0.56135371	     -2.90497238	      6.45475437	      2.76613904	     19.88121187	      0.34699261	     33.78201772	     -9.99224798	      0.00000000	     -2.40074701	     -3.74690857	      0.86246347	     19.81010200	      0.34575151	     35.43282523	     -7.93613644	      0.00000000	     -0.19238576	     -0.17376643	      1.39461595	     -0.35727959	     -0.23110935	      1.48177944	     -0.31607056	     -0.42249569	      1.48177944	     -0.21987768	     -0.42249569	      1.22028895	     -0.17864942	     -0.35434450	      1.13312546	     -0.10992922	     -0.26916420	      1.04596196	     -1.37419224	     -1.96568058	      7.75643551	      0.00000000	      0.00000000	     -3.10623879	      2.75164991	    -18.66115568	     36.89922276	     -6.77478173	      9.93935123	    110.08360114	     88.20909579	    -12.44237987	      7.76972985	     -8.81516077	    -18.95242512	     21.97650751	    118.63876708	     87.80701977	    -12.14981926	      0.59302332
      6.80769231	      1.81468397	      2.65200172	     93.86630774	      0.24510012	      0.89428767	      0.56190786	     -2.81328041	      6.44262795	      2.69155095	     19.81377840	      0.34581567	     33.64268966	     -9.98870410	      0.00000000	     -2.30652739	     -3.74182294	      0.99138279	     19.71220844	      0.34404294	     35.49087006	     -7.96660890	      0.00000000	     -0.18679849	     -0.18487825	      1.41820344	     -0.34690347	     -0.24588807	      1.50684115	     -0.30689123	     -0.44951298	      1.50684115	     -0.21349199	     -0.44951298	      1.24092801	     -0.17346108	     -0.37700373	      1.15229029	     -0.10673666	     -0.28637641	      1.06365258	     -1.33428291	     -2.09137974	      7.88762206	      0.00000000	      0.00000000	     -2.88991906	      2.69579286	    -18.77781939	     37.05908257	     -6.68622160	      9.59176738	    109.54845970	     88.21421816	    -12.49905695	      7.77138750	     -8.57759166	    -18.74404034	     21.73500780	    118.31621076	     87.69493990	    -12.25434331	      0.71882443
      6.82692308	      1.72175816	      2.59142892	     93.58059436	      0.24635225	      0.89431436	      0.56224991	     -2.79308030	      6.33223142	      2.76201032	     19.78284901	      0.34527585	     33.43724568	     -9.92107754	      0.00000000	     -2.37957851	     -3.56413340	      1.40726354	     19.48573668	      0.34009026	     35.13560974	     -8.83785119	      0.00000000	     -0.17443631	     -0.21933479	      1.50106093	     -0.32394568	     -0.29171526	      1.59487724	     -0.28658142	     -0.53329060	      1.59487724	     -0.19936326	     -0.53329060	      1.31342831	     -0.16198156	     -0.44726749	      1.21961201	     -0.09967291	     -0.33974958	      1.12579570	     -1.24598115	     -2.48115896	      8.34845057	      0.00000000	      0.00000000	     -2.45194761	      2.60319692	    -19.75833461	     37.23430908	     -6.32129068	      8.34385927	    105.54001313	     88.29643915	    -10.69700523	      5.43975332	     -7.96999308	    -18.65881343	     21.51321901	    118.11647815	     86.89880083	    -12.77045325	      1.92647518
      6.84615385	      1.69174015	      2.62708488	     93.40094301	      0.24743347	      0.89439803	      0.56248216	     -2.94969296	      6.29424113	      2.69147063	     19.59154954	      0.34193705	     33.15871445	     -9.85083285	      0.00000000	     -2.44414982	     -3.54798369	      1.40249029	     19.51993055	      0.34068706	     35.03102928	     -9.16697187	      0.00000000	     -0.15426698	     -0.24325023	      1.55931961	     -0.28648921	     -0.32352280	      1.65677709	     -0.25344522	     -0.59143860	      1.65677709	     -0.17631173	     -0.59143860	      1.36440466	     -0.14325232	     -0.49603586	      1.26694718	     -0.08814815	     -0.37679460	      1.16948971	     -1.10191361	     -2.75169522	      8.67246789	      0.00000000	      0.00000000	     -2.17022264	      2.61377130	    -20.80205224	     38.00079861	     -5.87486868	      7.35879525	     99.24895162	     88.40374974	     -9.72041776	      4.90286070	     -7.23584164	    -18.51761474	     21.17461009	    117.70098709	     85.80178572	    -13.22007980	      2.59113702
      6.86538462	      1.59529121	      2.58817860	     93.26731111	      0.24853794	      0.89452758	      0.56250610	     -3.07137870	      6.18836040	      2.61094149	     19.33018930	      0.33737545	     32.83036500	     -9.63905241	      0.00000000	     -2.57305079	     -3.46305703	      1.42027704	     19.26866501	      0.33630165	     34.67375257	     -9.54946126	      0.00000000	     -0.10484964	     -0.27691317	      1.63262646	     -0.19471626	     -0.36829452	      1.73466561	     -0.17225747	     -0.67328669	      1.73466561	     -0.11983265	     -0.67328669	      1.42854815	     -0.09736337	     -0.56468134	      1.32650900	     -0.05991108	     -0.42893851	      1.22446984	     -0.74893048	     -3.13249720	      9.08017856	      0.00000000	      0.00000000	     -2.13017269	      2.57949558	    -22.01584821	     39.23297944	     -5.20887086	      6.22153834	     90.97342285	     88.41798206	     -6.99487240	      2.78580935	     -6.24804617	    -18.52041704	     21.04197184	    117.23107742	     83.81557117	    -13.84110102	      3.58895467
      6.88461538	      1.54469512	      2.63728988	     93.17090262	      0.24949475	      0.89462966	      0.56233535	     -3.28012483	      6.13484356	      2.51328588	     19.09288056	      0.33323363	     32.60509244	     -9.30631727	      0.00000000	     -2.69079357	     -3.45310842	      1.30136402	     19.26451706	      0.33622925	     34.45069783	     -9.82854778	      0.00000000	     -0.06549517	     -0.30701162	      1.72830981	     -0.12163108	     -0.40832546	      1.83632918	     -0.10760202	     -0.74646805	      1.83632918	     -0.07485443	     -0.74646805	      1.51227109	     -0.06081882	     -0.62605810	      1.40425172	     -0.03742394	     -0.47556100	      1.29623236	     -0.46782546	     -3.47297686	      9.61234070	      0.00000000	      0.00000000	     -2.28013932	      2.80497027	    -23.49639251	     40.94340361	     -4.63738392	      5.44334519	     82.66421512	     88.42691186	     -5.65729371	      2.40431869	     -4.98535308	    -18.43053521	     21.06121858	    116.51781493	     82.52300985	    -13.99210759	      4.12916781
      6.90384615	      1.65248792	      2.54197473	     93.18095878	      0.25029487	      0.89438781	      0.56170768	     -3.33782038	      6.27380943	      2.42509158	     18.85765415	      0.32912815	     32.39695735	     -9.05239459	      0.00000000	     -2.59625770	     -3.63028187	      1.14920960	     19.38911360	      0.33840387	     34.31654578	    -10.02526115	      0.00000000	     -0.00626311	     -0.32160404	      1.85815972	     -0.01163122	     -0.42773338	      1.97429470	     -0.01028966	     -0.78194807	      1.97429470	     -0.00715811	     -0.78194807	      1.62588975	     -0.00581592	     -0.65581497	      1.50975477	     -0.00357874	     -0.49816466	      1.39361979	     -0.04473676	     -3.63804927	     10.33452691	      0.00000000	      0.00000000	     -2.39034089	      3.38114326	    -24.79792519	     42.55280762	     -4.36102962	      4.85876023	     75.71214437	     88.39893113	     -5.77109027	      3.30065157	     -3.66401046	    -18.26282877	     21.43741642	    115.81780031	     82.26540766	    -13.88478766	      4.52459696
      6.92307692	      1.63532512	      2.64770683	     93.04452670	      0.25114815	      0.89406436	      0.56116357	     -3.56697266	      6.26248738	      2.45059376	     18.72513175	      0.32681520	     32.48470961	     -8.56878886	      0.00000000	     -2.72049171	     -3.66406975	      0.85352206	     19.54978277	      0.34120808	     34.21242297	    -10.31569472	      0.00000000	     -0.01959542	     -0.34493577	      1.98669310	     -0.03639066	     -0.45876457	      2.11086142	     -0.03219332	     -0.83867683	      2.11086142	     -0.02239561	     -0.83867683	      1.73835646	     -0.01819631	     -0.70339302	      1.61418814	     -0.01119682	     -0.53430551	      1.49001982	     -0.13996813	     -3.90198240	     11.04939100	      0.00000000	      0.00000000	     -2.03983887	      3.50000255	    -26.14833424	     44.17959087	     -4.24505280	      4.79263907	     70.41523720	     88.32446084	     -5.38030298	      3.20688789	     -2.81372386	    -17.97743633	     21.54780356	    115.68770307	     82.20666966	    -13.79408840	      4.92330063
